<?xml version="1.0" encoding="UTF-8" standalone="no"?>
<!-- Created with Inkscape (http://www.inkscape.org/) -->

<svg
   xmlns:dc="http://purl.org/dc/elements/1.1/"
   xmlns:cc="http://creativecommons.org/ns#"
   xmlns:rdf="http://www.w3.org/1999/02/22-rdf-syntax-ns#"
   xmlns:svg="http://www.w3.org/2000/svg"
   xmlns="http://www.w3.org/2000/svg"
   xmlns:sodipodi="http://sodipodi.sourceforge.net/DTD/sodipodi-0.dtd"
   xmlns:inkscape="http://www.inkscape.org/namespaces/inkscape"
   width="329.72754mm"
   height="96.889191mm"
   viewBox="0 0 1168.3259 343.30817"
   id="svg2"
   version="1.1"
   inkscape:version="0.91 r13725"
   sodipodi:docname="stack-concepts.svg">
  <defs
     id="defs4" />
  <sodipodi:namedview
     id="base"
     pagecolor="#ffffff"
     bordercolor="#666666"
     borderopacity="1.0"
     inkscape:pageopacity="0.0"
     inkscape:pageshadow="2"
     inkscape:zoom="0.86106109"
     inkscape:cx="584.16296"
     inkscape:cy="171.65407"
     inkscape:document-units="px"
     inkscape:current-layer="layer1"
     showgrid="false"
     inkscape:window-width="1440"
     inkscape:window-height="855"
     inkscape:window-x="0"
     inkscape:window-y="1"
     inkscape:window-maximized="1"
     fit-margin-top="0"
     fit-margin-left="0"
     fit-margin-right="0"
     fit-margin-bottom="0" />
  <metadata
     id="metadata7">
    <rdf:RDF>
      <cc:Work
         rdf:about="">
        <dc:format>image/svg+xml</dc:format>
        <dc:type
           rdf:resource="http://purl.org/dc/dcmitype/StillImage" />
        <dc:title></dc:title>
      </cc:Work>
    </rdf:RDF>
  </metadata>
  <g
     inkscape:label="Layer 1"
     inkscape:groupmode="layer"
     id="layer1"
     transform="translate(159.52162,-431.32501)">
    <rect
       style="opacity:1;fill:#1d202f;fill-opacity:1;fill-rule:evenodd;stroke:none;stroke-width:0.99921256;stroke-linecap:square;stroke-linejoin:round;stroke-miterlimit:4;stroke-dasharray:1.99842513, 1.99842513;stroke-dashoffset:0;stroke-opacity:1"
       id="rect4562"
       width="1168.3259"
       height="343.30817"
       x="-159.52162"
       y="431.32501" />
    <g
       id="g4830"
       transform="translate(-1.5170898,46.000002)">
      <g
         id="g5993"
         transform="translate(0,-18.000001)">
        <rect
           style="opacity:1;fill:#e6e06e;fill-opacity:1;fill-rule:evenodd;stroke:none;stroke-width:0.99921256;stroke-linecap:square;stroke-linejoin:round;stroke-miterlimit:4;stroke-dasharray:1.99842513, 1.99842513;stroke-dashoffset:0;stroke-opacity:1"
           id="rect4564"
           width="1148.776"
           height="100.00001"
           x="-148.93967"
           y="413.56577" />
        <text
           xml:space="preserve"
           style="font-style:normal;font-weight:normal;font-size:27.5px;line-height:1000%;font-family:sans-serif;text-align:center;letter-spacing:0px;word-spacing:0px;text-anchor:middle;fill:#000000;fill-opacity:1;stroke:none;stroke-width:1px;stroke-linecap:butt;stroke-linejoin:miter;stroke-opacity:1"
           x="425.34763"
           y="473.81784"
           id="text4566"
           sodipodi:linespacing="1000%"><tspan
             sodipodi:role="line"
             id="tspan4568"
             x="425.34763"
             y="473.81784">Frontend</tspan></text>
      </g>
    </g>
    <g
       id="g5988"
       transform="translate(0,58.000002)">
      <rect
         y="493.7207"
         x="-150.45676"
         height="100.00001"
         width="1148.776"
         id="rect4585"
         style="opacity:1;fill:#fd6c71;fill-opacity:1;fill-rule:evenodd;stroke:none;stroke-width:0.99921256;stroke-linecap:square;stroke-linejoin:round;stroke-miterlimit:4;stroke-dasharray:1.99842513, 1.99842513;stroke-dashoffset:0;stroke-opacity:1" />
      <text
         sodipodi:linespacing="1000%"
         id="text4587"
         y="551.30737"
         x="423.25986"
         style="font-style:normal;font-weight:normal;font-size:27.5px;line-height:1000%;font-family:sans-serif;text-align:center;letter-spacing:0px;word-spacing:0px;text-anchor:middle;fill:#000000;fill-opacity:1;stroke:none;stroke-width:1px;stroke-linecap:butt;stroke-linejoin:miter;stroke-opacity:1"
         xml:space="preserve"><tspan
           y="551.30737"
           x="423.25986"
           id="tspan4589"
           sodipodi:role="line">Background Process</tspan></text>
    </g>
    <g
       id="g5979"
       transform="translate(0,90.00001)">
      <path
         style="opacity:1;fill:#2fb7cd;fill-opacity:1;fill-rule:evenodd;stroke:none;stroke-width:0.99921256;stroke-linecap:square;stroke-linejoin:round;stroke-miterlimit:4;stroke-dasharray:1.99842513, 1.99842513;stroke-dashoffset:0;stroke-opacity:1"
         d="m -150.45676,573.56934 678.47821,0 0,27.81524 -93.84285,0 0,72.18476 -584.63536,0 z"
         id="rect4597"
         inkscape:connector-curvature="0"
         sodipodi:nodetypes="ccccccc" />
      <g
         style="font-style:normal;font-weight:normal;font-size:27.5px;line-height:150%;font-family:sans-serif;text-align:center;letter-spacing:0px;word-spacing:0px;text-anchor:middle;fill:#000000;fill-opacity:1;stroke:none;stroke-width:1px;stroke-linecap:butt;stroke-linejoin:miter;stroke-opacity:1"
         id="text4632">
        <path
           d="m 113.33862,590.4834 12.67578,0 0,2.28271 -9.96337,0 0,5.93506 9.54711,0 0,2.28272 -9.54711,0 0,7.2644 10.20507,0 0,2.28272 -12.91748,0 0,-20.04761 z"
           style="line-height:150%"
           id="path6000"
           inkscape:connector-curvature="0" />
        <path
           d="m 140.47607,597.77466 0,-8.13721 2.47071,0 0,20.89356 -2.47071,0 0,-2.25586 q -0.7788,1.34277 -1.97387,2.00073 -1.18164,0.64453 -2.84668,0.64453 -2.72583,0 -4.44458,-2.17529 -1.70532,-2.1753 -1.70532,-5.72022 0,-3.54492 1.70532,-5.72021 1.71875,-2.1753 4.44458,-2.1753 1.66504,0 2.84668,0.65796 1.19507,0.64453 1.97387,1.98731 z m -8.41919,5.25024 q 0,2.72583 1.11451,4.28345 1.12793,1.54419 3.08838,1.54419 1.96044,0 3.08837,-1.54419 1.12793,-1.55762 1.12793,-4.28345 0,-2.72583 -1.12793,-4.27002 -1.12793,-1.55761 -3.08837,-1.55761 -1.96045,0 -3.08838,1.55761 -1.11451,1.54419 -1.11451,4.27002 z"
           style="line-height:150%"
           id="path6002"
           inkscape:connector-curvature="0" />
        <path
           d="m 157.93213,602.83691 q 0,-2.68554 -1.1145,-4.16259 -1.10108,-1.47705 -3.10181,-1.47705 -1.9873,0 -3.10181,1.47705 -1.10107,1.47705 -1.10107,4.16259 0,2.67212 1.10107,4.14917 1.11451,1.47705 3.10181,1.47705 2.00073,0 3.10181,-1.47705 1.1145,-1.47705 1.1145,-4.14917 z m 2.4707,5.82764 q 0,3.84033 -1.70532,5.70679 -1.70532,1.87988 -5.22339,1.87988 -1.30249,0 -2.45727,-0.20142 -1.15479,-0.18798 -2.24244,-0.59082 l 0,-2.40356 q 1.08765,0.59082 2.14844,0.8728 1.06079,0.28199 2.16187,0.28199 2.43042,0 3.63891,-1.27564 1.2085,-1.26221 1.2085,-3.8269 l 0,-1.22193 q -0.76538,1.32935 -1.96045,1.98731 -1.19507,0.65796 -2.86011,0.65796 -2.76611,0 -4.45801,-2.10816 -1.69189,-2.10815 -1.69189,-5.58594 0,-3.49121 1.69189,-5.59936 1.6919,-2.10816 4.45801,-2.10816 1.66504,0 2.86011,0.65796 1.19507,0.65796 1.96045,1.98731 l 0,-2.28272 2.4707,0 0,13.17261 z"
           style="line-height:150%"
           id="path6004"
           inkscape:connector-curvature="0" />
        <path
           d="m 178.35571,602.3938 0,1.20849 -11.35986,0 q 0.16113,2.55127 1.53076,3.89405 1.38306,1.32934 3.84033,1.32934 1.42334,0 2.75269,-0.34912 1.34277,-0.34912 2.65869,-1.04736 l 0,2.33642 q -1.32935,0.56397 -2.72583,0.85938 -1.39648,0.29541 -2.83325,0.29541 -3.59863,0 -5.70679,-2.09473 -2.09473,-2.09472 -2.09473,-5.6665 0,-3.69263 1.98731,-5.85449 2.00073,-2.1753 5.38452,-2.1753 3.03467,0 4.7937,1.96045 1.77246,1.94703 1.77246,5.30396 z m -2.4707,-0.7251 q -0.0269,-2.02759 -1.14136,-3.23608 -1.10107,-1.2085 -2.92724,-1.2085 -2.06787,0 -3.31665,1.16821 -1.23536,1.16822 -1.42334,3.2898 l 8.80859,-0.0134 z"
           style="line-height:150%"
           id="path6006"
           inkscape:connector-curvature="0" />
        <path
           d="m 191.11206,595.49194 2.4707,0 0,15.03907 -2.4707,0 0,-15.03907 z m 0,-5.85449 2.4707,0 0,3.12866 -2.4707,0 0,-3.12866 z"
           style="line-height:150%"
           id="path6008"
           inkscape:connector-curvature="0" />
        <path
           d="m 211.24023,601.45386 0,9.07715 -2.4707,0 0,-8.99659 q 0,-2.13501 -0.83252,-3.1958 -0.83252,-1.06079 -2.49756,-1.06079 -2.00073,0 -3.15551,1.27564 -1.15479,1.27563 -1.15479,3.47778 l 0,8.49976 -2.48413,0 0,-15.03907 2.48413,0 0,2.33643 q 0.88623,-1.3562 2.0813,-2.02759 1.2085,-0.67139 2.77954,-0.67139 2.59155,0 3.9209,1.61133 1.32934,1.5979 1.32934,4.71314 z"
           style="line-height:150%"
           id="path6010"
           inkscape:connector-curvature="0" />
        <path
           d="m 227.3938,591.22192 0,4.27002 5.08911,0 0,1.92017 -5.08911,0 0,8.16406 q 0,1.8396 0.49682,2.36328 0.51026,0.52368 2.05445,0.52368 l 2.53784,0 0,2.06788 -2.53784,0 q -2.86011,0 -3.94776,-1.0608 -1.08764,-1.07421 -1.08764,-3.89404 l 0,-8.16406 -1.81275,0 0,-1.92017 1.81275,0 0,-4.27002 2.48413,0 z"
           style="line-height:150%"
           id="path6012"
           inkscape:connector-curvature="0" />
        <path
           d="m 248.24707,601.45386 0,9.07715 -2.4707,0 0,-8.99659 q 0,-2.13501 -0.83252,-3.1958 -0.83252,-1.06079 -2.49756,-1.06079 -2.00073,0 -3.15552,1.27564 -1.15478,1.27563 -1.15478,3.47778 l 0,8.49976 -2.48413,0 0,-20.89356 2.48413,0 0,8.19092 q 0.88623,-1.3562 2.0813,-2.02759 1.20849,-0.67139 2.77954,-0.67139 2.59155,0 3.92089,1.61133 1.32935,1.5979 1.32935,4.71314 z"
           style="line-height:150%"
           id="path6014"
           inkscape:connector-curvature="0" />
        <path
           d="m 266.06567,602.3938 0,1.20849 -11.35986,0 q 0.16113,2.55127 1.53076,3.89405 1.38306,1.32934 3.84033,1.32934 1.42334,0 2.75269,-0.34912 1.34277,-0.34912 2.65869,-1.04736 l 0,2.33642 q -1.32934,0.56397 -2.72583,0.85938 -1.39648,0.29541 -2.83325,0.29541 -3.59863,0 -5.70679,-2.09473 -2.09472,-2.09472 -2.09472,-5.6665 0,-3.69263 1.9873,-5.85449 2.00073,-2.1753 5.38452,-2.1753 3.03467,0 4.7937,1.96045 1.77246,1.94703 1.77246,5.30396 z m -2.4707,-0.7251 q -0.0268,-2.02759 -1.14136,-3.23608 -1.10107,-1.2085 -2.92724,-1.2085 -2.06787,0 -3.31665,1.16821 -1.23535,1.16822 -1.42334,3.2898 l 8.80859,-0.0134 z"
           style="line-height:150%"
           id="path6016"
           inkscape:connector-curvature="0" />
        <path
           d="m 116.35986,632.39136 0,2.64526 q -1.54419,-0.73852 -2.91382,-1.10107 -1.36962,-0.36255 -2.64526,-0.36255 -2.21557,0 -3.42407,0.85937 -1.19507,0.85938 -1.19507,2.44385 0,1.32935 0.79224,2.01416 0.80566,0.67139 3.03466,1.08765 l 1.63819,0.33569 q 3.03467,0.57739 4.47143,2.04102 1.4502,1.45019 1.4502,3.89404 0,2.91382 -1.96045,4.41772 -1.94702,1.50391 -5.72021,1.50391 -1.42334,0 -3.03467,-0.32227 -1.5979,-0.32226 -3.31665,-0.95336 l 0,-2.79297 q 1.65161,0.92651 3.23608,1.39648 1.58447,0.46997 3.11524,0.46997 2.32299,0 3.5852,-0.91308 1.26221,-0.91309 1.26221,-2.60498 0,-1.47706 -0.91309,-2.30958 -0.89966,-0.83251 -2.96753,-1.24877 l -1.65161,-0.32227 q -3.03467,-0.60425 -4.39087,-1.89331 -1.3562,-1.28906 -1.3562,-3.58521 0,-2.65869 1.86646,-4.18945 1.87988,-1.53076 5.16967,-1.53076 1.40992,0 2.87354,0.25513 1.46362,0.25512 2.99438,0.76538 z"
           style="line-height:150%"
           id="path6018"
           inkscape:connector-curvature="0" />
        <path
           d="m 127.57202,638.47412 q -1.9873,0 -3.14209,1.55762 -1.15478,1.54419 -1.15478,4.24316 0,2.69898 1.14135,4.25659 1.15479,1.54419 3.15552,1.54419 1.97388,0 3.12866,-1.55761 1.15479,-1.55762 1.15479,-4.24317 0,-2.67212 -1.15479,-4.22973 -1.15478,-1.57105 -3.12866,-1.57105 z m 0,-2.09473 q 3.22266,0 5.06226,2.09473 1.8396,2.09473 1.8396,5.80078 0,3.69263 -1.8396,5.80078 -1.8396,2.09473 -5.06226,2.09473 -3.23608,0 -5.07568,-2.09473 -1.82617,-2.10815 -1.82617,-5.80078 0,-3.70605 1.82617,-5.80078 1.8396,-2.09473 5.07568,-2.09473 z"
           style="line-height:150%"
           id="path6020"
           inkscape:connector-curvature="0" />
        <path
           d="m 149.37866,637.31934 0,2.30957 q -1.04736,-0.5774 -2.10815,-0.85938 -1.04737,-0.29541 -2.12158,-0.29541 -2.40357,0 -3.73291,1.53076 -1.32935,1.51734 -1.32935,4.27002 0,2.75269 1.32935,4.28345 1.32934,1.51733 3.73291,1.51733 1.07421,0 2.12158,-0.28198 1.06079,-0.29541 2.10815,-0.8728 l 0,2.28271 q -1.03393,0.4834 -2.14844,0.7251 -1.10107,0.2417 -2.34985,0.2417 -3.39722,0 -5.39795,-2.13501 -2.00073,-2.13501 -2.00073,-5.7605 0,-3.6792 2.01416,-5.78735 2.02759,-2.10816 5.54565,-2.10816 1.14136,0 2.22901,0.2417 1.08764,0.22828 2.10815,0.69825 z"
           style="line-height:150%"
           id="path6022"
           inkscape:connector-curvature="0" />
        <path
           d="m 153.64868,636.74194 2.4707,0 0,15.03907 -2.4707,0 0,-15.03907 z m 0,-5.85449 2.4707,0 0,3.12866 -2.4707,0 0,-3.12866 z"
           style="line-height:150%"
           id="path6024"
           inkscape:connector-curvature="0" />
        <path
           d="m 168.11035,644.22119 q -2.99438,0 -4.14917,0.68482 -1.15478,0.68481 -1.15478,2.33642 0,1.31592 0.85937,2.09473 0.8728,0.76538 2.36328,0.76538 2.05445,0 3.2898,-1.4502 1.24878,-1.46362 1.24878,-3.88061 l 0,-0.55054 -2.45728,0 z m 4.92798,-1.02051 0,8.58033 -2.4707,0 0,-2.28272 q -0.84595,1.36963 -2.10816,2.02759 -1.2622,0.64453 -3.08838,0.64453 -2.30957,0 -3.6792,-1.28906 -1.3562,-1.30249 -1.3562,-3.47779 0,-2.53784 1.6919,-3.8269 1.70532,-1.28906 5.07568,-1.28906 l 3.46436,0 0,-0.2417 q 0,-1.70532 -1.12793,-2.63184 -1.1145,-0.93994 -3.14209,-0.93994 -1.28907,0 -2.51099,0.30884 -1.22192,0.30884 -2.34985,0.92651 l 0,-2.28271 q 1.3562,-0.52368 2.63183,-0.77881 1.27564,-0.26856 2.48413,-0.26856 3.26294,0 4.87427,1.6919 1.61133,1.69189 1.61133,5.12939 z"
           style="line-height:150%"
           id="path6026"
           inkscape:connector-curvature="0" />
        <path
           d="m 178.19458,630.88745 2.4707,0 0,20.89356 -2.4707,0 0,-20.89356 z"
           style="line-height:150%"
           id="path6028"
           inkscape:connector-curvature="0" />
        <path
           d="m 208.35327,648.9209 0,-5.38452 -4.43115,0 0,-2.22901 7.1167,0 0,8.60718 q -1.57105,1.1145 -3.46436,1.6919 -1.89331,0.56396 -4.04175,0.56396 -4.6997,0 -7.35839,-2.73926 -2.64527,-2.75268 -2.64527,-7.65381 0,-4.91455 2.64527,-7.6538 2.65869,-2.75269 7.35839,-2.75269 1.96045,0 3.71949,0.4834 1.77246,0.4834 3.26294,1.42334 l 0,2.88696 q -1.50391,-1.27563 -3.1958,-1.92017 -1.6919,-0.64453 -3.55835,-0.64453 -3.6792,0 -5.53223,2.05445 -1.8396,2.05444 -1.8396,6.12304 0,4.05518 1.8396,6.10962 1.85303,2.05445 5.53223,2.05445 1.43676,0 2.56469,-0.2417 1.12793,-0.25513 2.02759,-0.77881 z"
           style="line-height:150%"
           id="path6030"
           inkscape:connector-curvature="0" />
        <path
           d="m 224.61426,639.05151 q -0.41626,-0.2417 -0.91309,-0.34912 -0.4834,-0.12085 -1.07422,-0.12085 -2.09472,0 -3.22265,1.36963 -1.11451,1.3562 -1.11451,3.90747 l 0,7.92237 -2.48413,0 0,-15.03907 2.48413,0 0,2.33643 q 0.77881,-1.36963 2.02759,-2.02759 1.24878,-0.67139 3.03467,-0.67139 0.25513,0 0.56397,0.0403 0.30883,0.0269 0.68481,0.094 l 0.0134,2.53784 z"
           style="line-height:150%"
           id="path6032"
           inkscape:connector-curvature="0" />
        <path
           d="m 234.06738,644.22119 q -2.99438,0 -4.14917,0.68482 -1.15478,0.68481 -1.15478,2.33642 0,1.31592 0.85937,2.09473 0.87281,0.76538 2.36328,0.76538 2.05445,0 3.2898,-1.4502 1.24878,-1.46362 1.24878,-3.88061 l 0,-0.55054 -2.45728,0 z m 4.92798,-1.02051 0,8.58033 -2.4707,0 0,-2.28272 q -0.84595,1.36963 -2.10816,2.02759 -1.2622,0.64453 -3.08838,0.64453 -2.30957,0 -3.67919,-1.28906 -1.35621,-1.30249 -1.35621,-3.47779 0,-2.53784 1.6919,-3.8269 1.70532,-1.28906 5.07568,-1.28906 l 3.46436,0 0,-0.2417 q 0,-1.70532 -1.12793,-2.63184 -1.1145,-0.93994 -3.14209,-0.93994 -1.28906,0 -2.51099,0.30884 -1.22192,0.30884 -2.34985,0.92651 l 0,-2.28271 q 1.3562,-0.52368 2.63183,-0.77881 1.27564,-0.26856 2.48414,-0.26856 3.26294,0 4.87426,1.6919 1.61133,1.69189 1.61133,5.12939 z"
           style="line-height:150%"
           id="path6034"
           inkscape:connector-curvature="0" />
        <path
           d="m 246.54175,649.52515 0,7.97607 -2.48413,0 0,-20.75928 2.48413,0 0,2.28272 q 0.77881,-1.34278 1.96045,-1.98731 1.19507,-0.65796 2.84668,-0.65796 2.73925,0 4.44458,2.1753 1.71875,2.17529 1.71875,5.72021 0,3.54492 -1.71875,5.72022 -1.70533,2.17529 -4.44458,2.17529 -1.65161,0 -2.84668,-0.64453 -1.18164,-0.65796 -1.96045,-2.00073 z m 8.40576,-5.25025 q 0,-2.72583 -1.12793,-4.27002 -1.1145,-1.55761 -3.07495,-1.55761 -1.96045,0 -3.08838,1.55761 -1.1145,1.54419 -1.1145,4.27002 0,2.72583 1.1145,4.28345 1.12793,1.54419 3.08838,1.54419 1.96045,0 3.07495,-1.54419 1.12793,-1.55762 1.12793,-4.28345 z"
           style="line-height:150%"
           id="path6036"
           inkscape:connector-curvature="0" />
        <path
           d="m 274.10889,642.70386 0,9.07715 -2.47071,0 0,-8.99659 q 0,-2.13501 -0.83252,-3.1958 -0.83252,-1.06079 -2.49755,-1.06079 -2.00074,0 -3.15552,1.27564 -1.15479,1.27563 -1.15479,3.47778 l 0,8.49976 -2.48413,0 0,-20.89356 2.48413,0 0,8.19092 q 0.88623,-1.3562 2.0813,-2.02759 1.2085,-0.67139 2.77954,-0.67139 2.59156,0 3.9209,1.61133 1.32935,1.5979 1.32935,4.71314 z"
           style="line-height:150%"
           id="path6038"
           inkscape:connector-curvature="0" />
      </g>
    </g>
    <g
       id="g5973"
       transform="translate(0,90.00001)">
      <path
         style="opacity:1;fill:#57cd6c;fill-opacity:1;fill-rule:evenodd;stroke:none;stroke-width:0.99921256;stroke-linecap:square;stroke-linejoin:round;stroke-miterlimit:4;stroke-dasharray:1.99842513, 1.99842513;stroke-dashoffset:0;stroke-opacity:1"
         d="m 536.78485,573.56934 461.53439,0 0,100 -370.44405,0 0,-72.18476 -91.09034,0 z"
         id="rect4599"
         inkscape:connector-curvature="0"
         sodipodi:nodetypes="ccccccc" />
      <g
         style="font-style:normal;font-weight:normal;font-size:27.5px;line-height:150%;font-family:sans-serif;text-align:center;letter-spacing:0px;word-spacing:0px;text-anchor:middle;fill:#000000;fill-opacity:1;stroke:none;stroke-width:1px;stroke-linecap:butt;stroke-linejoin:miter;stroke-opacity:1"
         id="text4636">
        <path
           d="m 690.81927,590.4834 3.65235,0 8.88916,16.77124 0,-16.77124 2.63183,0 0,20.04761 -3.65234,0 -8.88916,-16.77124 0,16.77124 -2.63184,0 0,-20.04761 z"
           style="line-height:150%"
           id="path6042"
           inkscape:connector-curvature="0" />
        <path
           d="m 717.11078,597.22412 q -1.98731,0 -3.14209,1.55762 -1.15479,1.54419 -1.15479,4.24316 0,2.69898 1.14136,4.25659 1.15479,1.54419 3.15552,1.54419 1.97388,0 3.12866,-1.55761 1.15479,-1.55762 1.15479,-4.24317 0,-2.67212 -1.15479,-4.22973 -1.15478,-1.57105 -3.12866,-1.57105 z m 0,-2.09473 q 3.22266,0 5.06225,2.09473 1.8396,2.09473 1.8396,5.80078 0,3.69263 -1.8396,5.80078 -1.83959,2.09473 -5.06225,2.09473 -3.23609,0 -5.07568,-2.09473 -1.82618,-2.10815 -1.82618,-5.80078 0,-3.70605 1.82618,-5.80078 1.83959,-2.09473 5.07568,-2.09473 z"
           style="line-height:150%"
           id="path6044"
           inkscape:connector-curvature="0" />
        <path
           d="m 737.99091,597.77466 0,-8.13721 2.4707,0 0,20.89356 -2.4707,0 0,-2.25586 q -0.77881,1.34277 -1.97388,2.00073 -1.18164,0.64453 -2.84668,0.64453 -2.72583,0 -4.44458,-2.17529 -1.70532,-2.1753 -1.70532,-5.72022 0,-3.54492 1.70532,-5.72021 1.71875,-2.1753 4.44458,-2.1753 1.66504,0 2.84668,0.65796 1.19507,0.64453 1.97388,1.98731 z m -8.41919,5.25024 q 0,2.72583 1.1145,4.28345 1.12793,1.54419 3.08838,1.54419 1.96045,0 3.08838,-1.54419 1.12793,-1.55762 1.12793,-4.28345 0,-2.72583 -1.12793,-4.27002 -1.12793,-1.55761 -3.08838,-1.55761 -1.96045,0 -3.08838,1.55761 -1.1145,1.54419 -1.1145,4.27002 z"
           style="line-height:150%"
           id="path6046"
           inkscape:connector-curvature="0" />
        <path
           d="m 758.41449,602.3938 0,1.20849 -11.35986,0 q 0.16113,2.55127 1.53076,3.89405 1.38305,1.32934 3.84033,1.32934 1.42334,0 2.75269,-0.34912 1.34277,-0.34912 2.65869,-1.04736 l 0,2.33642 q -1.32935,0.56397 -2.72583,0.85938 -1.39649,0.29541 -2.83325,0.29541 -3.59864,0 -5.70679,-2.09473 -2.09473,-2.09472 -2.09473,-5.6665 0,-3.69263 1.98731,-5.85449 2.00073,-2.1753 5.38452,-2.1753 3.03467,0 4.7937,1.96045 1.77246,1.94703 1.77246,5.30396 z m -2.4707,-0.7251 q -0.0269,-2.02759 -1.14136,-3.23608 -1.10108,-1.2085 -2.92725,-1.2085 -2.06787,0 -3.31665,1.16821 -1.23535,1.16822 -1.42334,3.2898 l 8.8086,-0.0134 z"
           style="line-height:150%"
           id="path6048"
           inkscape:connector-curvature="0" />
        <path
           d="m 771.17084,595.49194 2.4707,0 0,15.03907 -2.4707,0 0,-15.03907 z m 0,-5.85449 2.4707,0 0,3.12866 -2.4707,0 0,-3.12866 z"
           style="line-height:150%"
           id="path6050"
           inkscape:connector-curvature="0" />
        <path
           d="m 791.29901,601.45386 0,9.07715 -2.4707,0 0,-8.99659 q 0,-2.13501 -0.83252,-3.1958 -0.83252,-1.06079 -2.49756,-1.06079 -2.00073,0 -3.15552,1.27564 -1.15478,1.27563 -1.15478,3.47778 l 0,8.49976 -2.48413,0 0,-15.03907 2.48413,0 0,2.33643 q 0.88623,-1.3562 2.0813,-2.02759 1.20849,-0.67139 2.77954,-0.67139 2.59155,0 3.9209,1.61133 1.32934,1.5979 1.32934,4.71314 z"
           style="line-height:150%"
           id="path6052"
           inkscape:connector-curvature="0" />
        <path
           d="m 807.45258,591.22192 0,4.27002 5.08911,0 0,1.92017 -5.08911,0 0,8.16406 q 0,1.8396 0.49682,2.36328 0.51026,0.52368 2.05445,0.52368 l 2.53784,0 0,2.06788 -2.53784,0 q -2.86011,0 -3.94776,-1.0608 -1.08765,-1.07421 -1.08765,-3.89404 l 0,-8.16406 -1.81274,0 0,-1.92017 1.81274,0 0,-4.27002 2.48414,0 z"
           style="line-height:150%"
           id="path6054"
           inkscape:connector-curvature="0" />
        <path
           d="m 828.30585,601.45386 0,9.07715 -2.47071,0 0,-8.99659 q 0,-2.13501 -0.83252,-3.1958 -0.83252,-1.06079 -2.49755,-1.06079 -2.00074,0 -3.15552,1.27564 -1.15479,1.27563 -1.15479,3.47778 l 0,8.49976 -2.48413,0 0,-20.89356 2.48413,0 0,8.19092 q 0.88623,-1.3562 2.0813,-2.02759 1.2085,-0.67139 2.77954,-0.67139 2.59156,0 3.9209,1.61133 1.32935,1.5979 1.32935,4.71314 z"
           style="line-height:150%"
           id="path6056"
           inkscape:connector-curvature="0" />
        <path
           d="m 846.12445,602.3938 0,1.20849 -11.35986,0 q 0.16113,2.55127 1.53076,3.89405 1.38306,1.32934 3.84033,1.32934 1.42334,0 2.75269,-0.34912 1.34277,-0.34912 2.65869,-1.04736 l 0,2.33642 q -1.32935,0.56397 -2.72583,0.85938 -1.39649,0.29541 -2.83325,0.29541 -3.59864,0 -5.70679,-2.09473 -2.09473,-2.09472 -2.09473,-5.6665 0,-3.69263 1.98731,-5.85449 2.00073,-2.1753 5.38452,-2.1753 3.03467,0 4.7937,1.96045 1.77246,1.94703 1.77246,5.30396 z m -2.4707,-0.7251 q -0.0269,-2.02759 -1.14136,-3.23608 -1.10107,-1.2085 -2.92725,-1.2085 -2.06787,0 -3.31665,1.16821 -1.23535,1.16822 -1.42334,3.2898 l 8.8086,-0.0134 z"
           style="line-height:150%"
           id="path6058"
           inkscape:connector-curvature="0" />
        <path
           d="m 695.12958,632.39136 0,2.64526 q -1.54419,-0.73852 -2.91382,-1.10107 -1.36963,-0.36255 -2.64526,-0.36255 -2.21558,0 -3.42408,0.85937 -1.19507,0.85938 -1.19507,2.44385 0,1.32935 0.79224,2.01416 0.80567,0.67139 3.03467,1.08765 l 1.63818,0.33569 q 3.03467,0.57739 4.47144,2.04102 1.45019,1.45019 1.45019,3.89404 0,2.91382 -1.96045,4.41772 -1.94702,1.50391 -5.72021,1.50391 -1.42334,0 -3.03467,-0.32227 -1.5979,-0.32226 -3.31665,-0.95336 l 0,-2.79297 q 1.65161,0.92651 3.23609,1.39648 1.58447,0.46997 3.11523,0.46997 2.323,0 3.5852,-0.91308 1.26221,-0.91309 1.26221,-2.60498 0,-1.47706 -0.91308,-2.30958 -0.89966,-0.83251 -2.96753,-1.24877 l -1.65161,-0.32227 q -3.03467,-0.60425 -4.39087,-1.89331 -1.35621,-1.28906 -1.35621,-3.58521 0,-2.65869 1.86646,-4.18945 1.87988,-1.53076 5.16968,-1.53076 1.40991,0 2.87353,0.25513 1.46363,0.25512 2.99439,0.76538 z"
           style="line-height:150%"
           id="path6060"
           inkscape:connector-curvature="0" />
        <path
           d="m 706.34174,638.47412 q -1.98731,0 -3.14209,1.55762 -1.15479,1.54419 -1.15479,4.24316 0,2.69898 1.14136,4.25659 1.15478,1.54419 3.15552,1.54419 1.97387,0 3.12866,-1.55761 1.15478,-1.55762 1.15478,-4.24317 0,-2.67212 -1.15478,-4.22973 -1.15479,-1.57105 -3.12866,-1.57105 z m 0,-2.09473 q 3.22265,0 5.06225,2.09473 1.8396,2.09473 1.8396,5.80078 0,3.69263 -1.8396,5.80078 -1.8396,2.09473 -5.06225,2.09473 -3.23609,0 -5.07569,-2.09473 -1.82617,-2.10815 -1.82617,-5.80078 0,-3.70605 1.82617,-5.80078 1.8396,-2.09473 5.07569,-2.09473 z"
           style="line-height:150%"
           id="path6062"
           inkscape:connector-curvature="0" />
        <path
           d="m 728.14838,637.31934 0,2.30957 q -1.04737,-0.5774 -2.10816,-0.85938 -1.04736,-0.29541 -2.12158,-0.29541 -2.40356,0 -3.73291,1.53076 -1.32935,1.51734 -1.32935,4.27002 0,2.75269 1.32935,4.28345 1.32935,1.51733 3.73291,1.51733 1.07422,0 2.12158,-0.28198 1.06079,-0.29541 2.10816,-0.8728 l 0,2.28271 q -1.03394,0.4834 -2.14844,0.7251 -1.10108,0.2417 -2.34985,0.2417 -3.39722,0 -5.39795,-2.13501 -2.00074,-2.13501 -2.00074,-5.7605 0,-3.6792 2.01416,-5.78735 2.02759,-2.10816 5.54566,-2.10816 1.14136,0 2.229,0.2417 1.08765,0.22828 2.10816,0.69825 z"
           style="line-height:150%"
           id="path6064"
           inkscape:connector-curvature="0" />
        <path
           d="m 732.4184,636.74194 2.4707,0 0,15.03907 -2.4707,0 0,-15.03907 z m 0,-5.85449 2.4707,0 0,3.12866 -2.4707,0 0,-3.12866 z"
           style="line-height:150%"
           id="path6066"
           inkscape:connector-curvature="0" />
        <path
           d="m 746.88007,644.22119 q -2.99439,0 -4.14917,0.68482 -1.15479,0.68481 -1.15479,2.33642 0,1.31592 0.85938,2.09473 0.8728,0.76538 2.36328,0.76538 2.05444,0 3.28979,-1.4502 1.24878,-1.46362 1.24878,-3.88061 l 0,-0.55054 -2.45727,0 z m 4.92797,-1.02051 0,8.58033 -2.4707,0 0,-2.28272 q -0.84595,1.36963 -2.10815,2.02759 -1.26221,0.64453 -3.08838,0.64453 -2.30957,0 -3.6792,-1.28906 -1.3562,-1.30249 -1.3562,-3.47779 0,-2.53784 1.69189,-3.8269 1.70532,-1.28906 5.07569,-1.28906 l 3.46435,0 0,-0.2417 q 0,-1.70532 -1.12793,-2.63184 -1.1145,-0.93994 -3.14209,-0.93994 -1.28906,0 -2.51098,0.30884 -1.22193,0.30884 -2.34986,0.92651 l 0,-2.28271 q 1.3562,-0.52368 2.63184,-0.77881 1.27563,-0.26856 2.48413,-0.26856 3.26294,0 4.87427,1.6919 1.61132,1.69189 1.61132,5.12939 z"
           style="line-height:150%"
           id="path6068"
           inkscape:connector-curvature="0" />
        <path
           d="m 756.96429,630.88745 2.47071,0 0,20.89356 -2.47071,0 0,-20.89356 z"
           style="line-height:150%"
           id="path6070"
           inkscape:connector-curvature="0" />
        <path
           d="m 787.12299,648.9209 0,-5.38452 -4.43116,0 0,-2.22901 7.1167,0 0,8.60718 q -1.57104,1.1145 -3.46435,1.6919 -1.89331,0.56396 -4.04175,0.56396 -4.69971,0 -7.3584,-2.73926 -2.64526,-2.75268 -2.64526,-7.65381 0,-4.91455 2.64526,-7.6538 2.65869,-2.75269 7.3584,-2.75269 1.96045,0 3.71948,0.4834 1.77246,0.4834 3.26294,1.42334 l 0,2.88696 q -1.50391,-1.27563 -3.1958,-1.92017 -1.69189,-0.64453 -3.55835,-0.64453 -3.6792,0 -5.53223,2.05445 -1.8396,2.05444 -1.8396,6.12304 0,4.05518 1.8396,6.10962 1.85303,2.05445 5.53223,2.05445 1.43677,0 2.5647,-0.2417 1.12793,-0.25513 2.02759,-0.77881 z"
           style="line-height:150%"
           id="path6072"
           inkscape:connector-curvature="0" />
        <path
           d="m 803.38397,639.05151 q -0.41626,-0.2417 -0.91308,-0.34912 -0.4834,-0.12085 -1.07422,-0.12085 -2.09473,0 -3.22266,1.36963 -1.1145,1.3562 -1.1145,3.90747 l 0,7.92237 -2.48413,0 0,-15.03907 2.48413,0 0,2.33643 q 0.77881,-1.36963 2.02759,-2.02759 1.24878,-0.67139 3.03467,-0.67139 0.25512,0 0.56396,0.0403 0.30884,0.0269 0.68481,0.094 l 0.0134,2.53784 z"
           style="line-height:150%"
           id="path6074"
           inkscape:connector-curvature="0" />
        <path
           d="m 812.8371,644.22119 q -2.99439,0 -4.14917,0.68482 -1.15479,0.68481 -1.15479,2.33642 0,1.31592 0.85938,2.09473 0.8728,0.76538 2.36328,0.76538 2.05444,0 3.28979,-1.4502 1.24878,-1.46362 1.24878,-3.88061 l 0,-0.55054 -2.45727,0 z m 4.92798,-1.02051 0,8.58033 -2.47071,0 0,-2.28272 q -0.84594,1.36963 -2.10815,2.02759 -1.26221,0.64453 -3.08838,0.64453 -2.30957,0 -3.6792,-1.28906 -1.3562,-1.30249 -1.3562,-3.47779 0,-2.53784 1.69189,-3.8269 1.70533,-1.28906 5.07569,-1.28906 l 3.46435,0 0,-0.2417 q 0,-1.70532 -1.12793,-2.63184 -1.1145,-0.93994 -3.14209,-0.93994 -1.28906,0 -2.51098,0.30884 -1.22193,0.30884 -2.34986,0.92651 l 0,-2.28271 q 1.3562,-0.52368 2.63184,-0.77881 1.27563,-0.26856 2.48413,-0.26856 3.26294,0 4.87427,1.6919 1.61133,1.69189 1.61133,5.12939 z"
           style="line-height:150%"
           id="path6076"
           inkscape:connector-curvature="0" />
        <path
           d="m 825.31146,649.52515 0,7.97607 -2.48413,0 0,-20.75928 2.48413,0 0,2.28272 q 0.77881,-1.34278 1.96045,-1.98731 1.19507,-0.65796 2.84668,-0.65796 2.73926,0 4.44458,2.1753 1.71875,2.17529 1.71875,5.72021 0,3.54492 -1.71875,5.72022 -1.70532,2.17529 -4.44458,2.17529 -1.65161,0 -2.84668,-0.64453 -1.18164,-0.65796 -1.96045,-2.00073 z m 8.40576,-5.25025 q 0,-2.72583 -1.12793,-4.27002 -1.1145,-1.55761 -3.07495,-1.55761 -1.96045,0 -3.08838,1.55761 -1.1145,1.54419 -1.1145,4.27002 0,2.72583 1.1145,4.28345 1.12793,1.54419 3.08838,1.54419 1.96045,0 3.07495,-1.54419 1.12793,-1.55762 1.12793,-4.28345 z"
           style="line-height:150%"
           id="path6078"
           inkscape:connector-curvature="0" />
        <path
           d="m 852.8786,642.70386 0,9.07715 -2.4707,0 0,-8.99659 q 0,-2.13501 -0.83252,-3.1958 -0.83252,-1.06079 -2.49756,-1.06079 -2.00073,0 -3.15552,1.27564 -1.15478,1.27563 -1.15478,3.47778 l 0,8.49976 -2.48413,0 0,-20.89356 2.48413,0 0,8.19092 q 0.88623,-1.3562 2.0813,-2.02759 1.20849,-0.67139 2.77954,-0.67139 2.59155,0 3.9209,1.61133 1.32934,1.5979 1.32934,4.71314 z"
           style="line-height:150%"
           id="path6080"
           inkscape:connector-curvature="0" />
      </g>
    </g>
    <g
       id="g4672"
       transform="translate(0,-28.000002)">
      <rect
         y="727.8938"
         x="442.72528"
         height="64.19635"
         width="176.32155"
         id="rect4607"
         style="opacity:1;fill:#2fc899;fill-opacity:1;fill-rule:evenodd;stroke:none;stroke-width:0.99921256;stroke-linecap:square;stroke-linejoin:round;stroke-miterlimit:4;stroke-dasharray:1.99842513, 1.99842513;stroke-dashoffset:0;stroke-opacity:1" />
      <text
         xml:space="preserve"
         style="font-style:normal;font-weight:normal;font-size:27.5px;line-height:100%;font-family:sans-serif;text-align:center;letter-spacing:0px;word-spacing:0px;text-anchor:middle;fill:#000000;fill-opacity:1;stroke:none;stroke-width:1px;stroke-linecap:butt;stroke-linejoin:miter;stroke-opacity:1"
         x="529.94611"
         y="767.57861"
         id="text4664"
         sodipodi:linespacing="100%"><tspan
           style="font-size:27.5px;line-height:100%"
           id="tspan4670"
           sodipodi:role="line"
           x="529.94611"
           y="767.57861">Identity</tspan></text>
    </g>
  </g>
</svg>
